<mxfile host="app.diagrams.net" agent="Mozilla/5.0 (Windows NT 10.0; Win64; x64; rv:134.0) Gecko/20100101 Firefox/134.0" version="26.0.11">
  <diagram id="prtHgNgQTEPvFCAcTncT" name="Page-1">
    <mxGraphModel dx="794" dy="461" grid="1" gridSize="10" guides="1" tooltips="1" connect="1" arrows="1" fold="1" page="1" pageScale="1" pageWidth="827" pageHeight="1169" math="0" shadow="0">
      <root>
        <mxCell id="0" />
        <mxCell id="1" parent="0" />
        <mxCell id="LoEfclOxm1o4JzQXx3Db-2" value="Fitter Expense Reporting" style="swimlane;html=1;childLayout=stackLayout;resizeParent=1;resizeParentMax=0;startSize=20;whiteSpace=wrap;fontSize=11;" vertex="1" parent="1">
          <mxGeometry x="168" y="106" width="630" height="1170" as="geometry" />
        </mxCell>
        <mxCell id="LoEfclOxm1o4JzQXx3Db-3" value="Salesperson" style="swimlane;html=1;startSize=20;" vertex="1" parent="LoEfclOxm1o4JzQXx3Db-2">
          <mxGeometry y="20" width="150" height="1150" as="geometry" />
        </mxCell>
        <mxCell id="LoEfclOxm1o4JzQXx3Db-13" style="edgeStyle=orthogonalEdgeStyle;rounded=0;orthogonalLoop=1;jettySize=auto;html=1;exitX=0.5;exitY=1;exitDx=0;exitDy=0;entryX=0.5;entryY=0;entryDx=0;entryDy=0;" edge="1" parent="LoEfclOxm1o4JzQXx3Db-3" source="LoEfclOxm1o4JzQXx3Db-11" target="LoEfclOxm1o4JzQXx3Db-12">
          <mxGeometry relative="1" as="geometry" />
        </mxCell>
        <mxCell id="LoEfclOxm1o4JzQXx3Db-11" value="Expenses Incurred" style="rounded=1;whiteSpace=wrap;html=1;arcSize=50;fontSize=11;" vertex="1" parent="LoEfclOxm1o4JzQXx3Db-3">
          <mxGeometry x="15" y="40" width="120" height="30" as="geometry" />
        </mxCell>
        <mxCell id="LoEfclOxm1o4JzQXx3Db-16" style="edgeStyle=orthogonalEdgeStyle;rounded=0;orthogonalLoop=1;jettySize=auto;html=1;exitX=0.5;exitY=1;exitDx=0;exitDy=0;" edge="1" parent="LoEfclOxm1o4JzQXx3Db-3" source="LoEfclOxm1o4JzQXx3Db-12" target="LoEfclOxm1o4JzQXx3Db-14">
          <mxGeometry relative="1" as="geometry" />
        </mxCell>
        <mxCell id="LoEfclOxm1o4JzQXx3Db-12" value="Prepare expense report" style="rounded=0;whiteSpace=wrap;html=1;fontSize=11;" vertex="1" parent="LoEfclOxm1o4JzQXx3Db-3">
          <mxGeometry x="15" y="90" width="120" height="30" as="geometry" />
        </mxCell>
        <mxCell id="LoEfclOxm1o4JzQXx3Db-20" style="edgeStyle=orthogonalEdgeStyle;rounded=0;orthogonalLoop=1;jettySize=auto;html=1;entryX=0.5;entryY=0;entryDx=0;entryDy=0;" edge="1" parent="LoEfclOxm1o4JzQXx3Db-3" source="LoEfclOxm1o4JzQXx3Db-14" target="LoEfclOxm1o4JzQXx3Db-17">
          <mxGeometry relative="1" as="geometry" />
        </mxCell>
        <mxCell id="LoEfclOxm1o4JzQXx3Db-14" value="Copies report and receipts" style="rounded=0;whiteSpace=wrap;html=1;fontSize=11;" vertex="1" parent="LoEfclOxm1o4JzQXx3Db-3">
          <mxGeometry x="15" y="140" width="120" height="30" as="geometry" />
        </mxCell>
        <mxCell id="LoEfclOxm1o4JzQXx3Db-24" value="" style="edgeStyle=orthogonalEdgeStyle;rounded=0;orthogonalLoop=1;jettySize=auto;html=1;" edge="1" parent="LoEfclOxm1o4JzQXx3Db-3" source="LoEfclOxm1o4JzQXx3Db-17" target="LoEfclOxm1o4JzQXx3Db-21">
          <mxGeometry relative="1" as="geometry" />
        </mxCell>
        <mxCell id="LoEfclOxm1o4JzQXx3Db-17" value="Attaches receipt for all expenses &amp;gt; $25" style="rounded=0;whiteSpace=wrap;html=1;fontSize=11;" vertex="1" parent="LoEfclOxm1o4JzQXx3Db-3">
          <mxGeometry x="15" y="194" width="120" height="30" as="geometry" />
        </mxCell>
        <mxCell id="LoEfclOxm1o4JzQXx3Db-21" value="Mails expense report to sales manager" style="rounded=0;whiteSpace=wrap;html=1;fontSize=11;" vertex="1" parent="LoEfclOxm1o4JzQXx3Db-3">
          <mxGeometry x="15" y="249" width="120" height="30" as="geometry" />
        </mxCell>
        <mxCell id="LoEfclOxm1o4JzQXx3Db-37" value="" style="edgeStyle=orthogonalEdgeStyle;rounded=0;orthogonalLoop=1;jettySize=auto;html=1;" edge="1" parent="LoEfclOxm1o4JzQXx3Db-3" source="LoEfclOxm1o4JzQXx3Db-35" target="LoEfclOxm1o4JzQXx3Db-21">
          <mxGeometry relative="1" as="geometry" />
        </mxCell>
        <mxCell id="LoEfclOxm1o4JzQXx3Db-35" value="Modifies expense report" style="rounded=0;whiteSpace=wrap;html=1;fontSize=11;" vertex="1" parent="LoEfclOxm1o4JzQXx3Db-3">
          <mxGeometry x="15" y="326" width="120" height="30" as="geometry" />
        </mxCell>
        <mxCell id="LoEfclOxm1o4JzQXx3Db-94" value="" style="edgeStyle=orthogonalEdgeStyle;rounded=0;orthogonalLoop=1;jettySize=auto;html=1;" edge="1" parent="LoEfclOxm1o4JzQXx3Db-3" source="LoEfclOxm1o4JzQXx3Db-85" target="LoEfclOxm1o4JzQXx3Db-93">
          <mxGeometry relative="1" as="geometry" />
        </mxCell>
        <mxCell id="LoEfclOxm1o4JzQXx3Db-85" value="Revises report" style="rounded=0;whiteSpace=wrap;html=1;" vertex="1" parent="LoEfclOxm1o4JzQXx3Db-3">
          <mxGeometry x="15" y="907" width="120" height="60" as="geometry" />
        </mxCell>
        <mxCell id="LoEfclOxm1o4JzQXx3Db-93" value="Return report to the Auditor" style="rounded=0;whiteSpace=wrap;html=1;" vertex="1" parent="LoEfclOxm1o4JzQXx3Db-3">
          <mxGeometry x="15" y="1016" width="120" height="60" as="geometry" />
        </mxCell>
        <mxCell id="LoEfclOxm1o4JzQXx3Db-4" value="Sales Manager" style="swimlane;html=1;startSize=20;fontSize=11;" vertex="1" parent="LoEfclOxm1o4JzQXx3Db-2">
          <mxGeometry x="150" y="20" width="170" height="1150" as="geometry" />
        </mxCell>
        <mxCell id="LoEfclOxm1o4JzQXx3Db-31" value="" style="edgeStyle=orthogonalEdgeStyle;rounded=0;orthogonalLoop=1;jettySize=auto;html=1;" edge="1" parent="LoEfclOxm1o4JzQXx3Db-4" source="LoEfclOxm1o4JzQXx3Db-25" target="LoEfclOxm1o4JzQXx3Db-30">
          <mxGeometry relative="1" as="geometry" />
        </mxCell>
        <mxCell id="LoEfclOxm1o4JzQXx3Db-25" value="Reviews report" style="rounded=0;whiteSpace=wrap;html=1;fontSize=11;" vertex="1" parent="LoEfclOxm1o4JzQXx3Db-4">
          <mxGeometry x="12" y="249" width="120" height="30" as="geometry" />
        </mxCell>
        <mxCell id="LoEfclOxm1o4JzQXx3Db-38" style="edgeStyle=orthogonalEdgeStyle;rounded=0;orthogonalLoop=1;jettySize=auto;html=1;exitX=0.5;exitY=1;exitDx=0;exitDy=0;entryX=0.5;entryY=0;entryDx=0;entryDy=0;" edge="1" parent="LoEfclOxm1o4JzQXx3Db-4" source="LoEfclOxm1o4JzQXx3Db-30" target="LoEfclOxm1o4JzQXx3Db-32">
          <mxGeometry relative="1" as="geometry" />
        </mxCell>
        <mxCell id="LoEfclOxm1o4JzQXx3Db-44" style="edgeStyle=orthogonalEdgeStyle;rounded=0;orthogonalLoop=1;jettySize=auto;html=1;exitX=1;exitY=0.5;exitDx=0;exitDy=0;" edge="1" parent="LoEfclOxm1o4JzQXx3Db-4" source="LoEfclOxm1o4JzQXx3Db-30" target="LoEfclOxm1o4JzQXx3Db-33">
          <mxGeometry relative="1" as="geometry">
            <Array as="points">
              <mxPoint x="158" y="343" />
              <mxPoint x="158" y="450" />
              <mxPoint x="75" y="450" />
            </Array>
          </mxGeometry>
        </mxCell>
        <mxCell id="LoEfclOxm1o4JzQXx3Db-30" value="Expense report approved ?" style="rhombus;whiteSpace=wrap;html=1;" vertex="1" parent="LoEfclOxm1o4JzQXx3Db-4">
          <mxGeometry x="9" y="306" width="126" height="75" as="geometry" />
        </mxCell>
        <mxCell id="LoEfclOxm1o4JzQXx3Db-32" value="Mails report back to Salesperson" style="rounded=0;whiteSpace=wrap;html=1;fontSize=11;" vertex="1" parent="LoEfclOxm1o4JzQXx3Db-4">
          <mxGeometry x="12" y="403" width="120" height="30" as="geometry" />
        </mxCell>
        <mxCell id="LoEfclOxm1o4JzQXx3Db-47" value="" style="edgeStyle=orthogonalEdgeStyle;rounded=0;orthogonalLoop=1;jettySize=auto;html=1;" edge="1" parent="LoEfclOxm1o4JzQXx3Db-4" source="LoEfclOxm1o4JzQXx3Db-33" target="LoEfclOxm1o4JzQXx3Db-46">
          <mxGeometry relative="1" as="geometry" />
        </mxCell>
        <mxCell id="LoEfclOxm1o4JzQXx3Db-33" value="Reviews report" style="rounded=0;whiteSpace=wrap;html=1;fontSize=11;" vertex="1" parent="LoEfclOxm1o4JzQXx3Db-4">
          <mxGeometry x="15" y="466" width="120" height="30" as="geometry" />
        </mxCell>
        <mxCell id="LoEfclOxm1o4JzQXx3Db-41" value="No" style="text;html=1;align=center;verticalAlign=middle;whiteSpace=wrap;rounded=0;" vertex="1" parent="LoEfclOxm1o4JzQXx3Db-4">
          <mxGeometry x="63" y="369" width="60" height="30" as="geometry" />
        </mxCell>
        <mxCell id="LoEfclOxm1o4JzQXx3Db-42" value="Yes" style="text;html=1;align=center;verticalAlign=middle;whiteSpace=wrap;rounded=0;" vertex="1" parent="LoEfclOxm1o4JzQXx3Db-4">
          <mxGeometry x="110" y="339" width="60" height="30" as="geometry" />
        </mxCell>
        <mxCell id="LoEfclOxm1o4JzQXx3Db-46" value="Mails expense report to corporate office" style="rounded=0;whiteSpace=wrap;html=1;fontSize=11;" vertex="1" parent="LoEfclOxm1o4JzQXx3Db-4">
          <mxGeometry x="15" y="517" width="120" height="30" as="geometry" />
        </mxCell>
        <mxCell id="LoEfclOxm1o4JzQXx3Db-66" value="Provide clarifications" style="rounded=0;whiteSpace=wrap;html=1;" vertex="1" parent="LoEfclOxm1o4JzQXx3Db-4">
          <mxGeometry x="15" y="648" width="120" height="47" as="geometry" />
        </mxCell>
        <mxCell id="LoEfclOxm1o4JzQXx3Db-6" value="AP Clerk" style="swimlane;html=1;startSize=20;" vertex="1" parent="LoEfclOxm1o4JzQXx3Db-2">
          <mxGeometry x="320" y="20" width="150" height="1150" as="geometry" />
        </mxCell>
        <mxCell id="LoEfclOxm1o4JzQXx3Db-61" value="" style="edgeStyle=orthogonalEdgeStyle;rounded=0;orthogonalLoop=1;jettySize=auto;html=1;" edge="1" parent="LoEfclOxm1o4JzQXx3Db-6" source="LoEfclOxm1o4JzQXx3Db-49" target="LoEfclOxm1o4JzQXx3Db-60">
          <mxGeometry relative="1" as="geometry" />
        </mxCell>
        <mxCell id="LoEfclOxm1o4JzQXx3Db-49" value="Receives expense report from administrative assistant" style="rounded=0;whiteSpace=wrap;html=1;fontSize=11;" vertex="1" parent="LoEfclOxm1o4JzQXx3Db-6">
          <mxGeometry x="15" y="510" width="120" height="45" as="geometry" />
        </mxCell>
        <mxCell id="LoEfclOxm1o4JzQXx3Db-70" value="" style="edgeStyle=orthogonalEdgeStyle;rounded=0;orthogonalLoop=1;jettySize=auto;html=1;entryX=0.5;entryY=0;entryDx=0;entryDy=0;" edge="1" parent="LoEfclOxm1o4JzQXx3Db-6" source="LoEfclOxm1o4JzQXx3Db-60" target="LoEfclOxm1o4JzQXx3Db-62">
          <mxGeometry relative="1" as="geometry" />
        </mxCell>
        <mxCell id="LoEfclOxm1o4JzQXx3Db-60" value="Performs preliminary check of the report" style="rounded=0;whiteSpace=wrap;html=1;fontSize=11;" vertex="1" parent="LoEfclOxm1o4JzQXx3Db-6">
          <mxGeometry x="15" y="575" width="120" height="40" as="geometry" />
        </mxCell>
        <mxCell id="LoEfclOxm1o4JzQXx3Db-64" value="" style="edgeStyle=orthogonalEdgeStyle;rounded=0;orthogonalLoop=1;jettySize=auto;html=1;" edge="1" parent="LoEfclOxm1o4JzQXx3Db-6" source="LoEfclOxm1o4JzQXx3Db-62" target="LoEfclOxm1o4JzQXx3Db-63">
          <mxGeometry relative="1" as="geometry" />
        </mxCell>
        <mxCell id="LoEfclOxm1o4JzQXx3Db-62" value="Any clarifications?" style="rhombus;whiteSpace=wrap;html=1;" vertex="1" parent="LoEfclOxm1o4JzQXx3Db-6">
          <mxGeometry x="14" y="642" width="122.5" height="59" as="geometry" />
        </mxCell>
        <mxCell id="LoEfclOxm1o4JzQXx3Db-63" value="Forwards expense report to the Auditor" style="rounded=0;whiteSpace=wrap;html=1;" vertex="1" parent="LoEfclOxm1o4JzQXx3Db-6">
          <mxGeometry x="16" y="728" width="120" height="50" as="geometry" />
        </mxCell>
        <mxCell id="LoEfclOxm1o4JzQXx3Db-65" value="No" style="text;html=1;align=center;verticalAlign=middle;whiteSpace=wrap;rounded=0;" vertex="1" parent="LoEfclOxm1o4JzQXx3Db-6">
          <mxGeometry x="69" y="690" width="60" height="30" as="geometry" />
        </mxCell>
        <mxCell id="LoEfclOxm1o4JzQXx3Db-71" value="Yes" style="text;html=1;align=center;verticalAlign=middle;whiteSpace=wrap;rounded=0;" vertex="1" parent="LoEfclOxm1o4JzQXx3Db-6">
          <mxGeometry x="-11" y="671" width="60" height="30" as="geometry" />
        </mxCell>
        <mxCell id="LoEfclOxm1o4JzQXx3Db-27" value="" style="edgeStyle=orthogonalEdgeStyle;rounded=0;orthogonalLoop=1;jettySize=auto;html=1;" edge="1" parent="LoEfclOxm1o4JzQXx3Db-2" source="LoEfclOxm1o4JzQXx3Db-21" target="LoEfclOxm1o4JzQXx3Db-25">
          <mxGeometry relative="1" as="geometry" />
        </mxCell>
        <mxCell id="LoEfclOxm1o4JzQXx3Db-5" value="Auditor" style="swimlane;html=1;startSize=20;" vertex="1" parent="LoEfclOxm1o4JzQXx3Db-2">
          <mxGeometry x="470" y="20" width="160" height="1150" as="geometry" />
        </mxCell>
        <mxCell id="LoEfclOxm1o4JzQXx3Db-83" value="" style="edgeStyle=orthogonalEdgeStyle;rounded=0;orthogonalLoop=1;jettySize=auto;html=1;" edge="1" parent="LoEfclOxm1o4JzQXx3Db-5" source="LoEfclOxm1o4JzQXx3Db-78" target="LoEfclOxm1o4JzQXx3Db-81">
          <mxGeometry relative="1" as="geometry" />
        </mxCell>
        <mxCell id="LoEfclOxm1o4JzQXx3Db-78" value="Reviews expense report" style="rounded=0;whiteSpace=wrap;html=1;" vertex="1" parent="LoEfclOxm1o4JzQXx3Db-5">
          <mxGeometry x="22" y="728" width="120" height="50" as="geometry" />
        </mxCell>
        <mxCell id="LoEfclOxm1o4JzQXx3Db-97" value="" style="edgeStyle=orthogonalEdgeStyle;rounded=0;orthogonalLoop=1;jettySize=auto;html=1;" edge="1" parent="LoEfclOxm1o4JzQXx3Db-5" source="LoEfclOxm1o4JzQXx3Db-81" target="LoEfclOxm1o4JzQXx3Db-96">
          <mxGeometry relative="1" as="geometry" />
        </mxCell>
        <mxCell id="LoEfclOxm1o4JzQXx3Db-98" style="edgeStyle=orthogonalEdgeStyle;rounded=0;orthogonalLoop=1;jettySize=auto;html=1;exitX=1;exitY=0.5;exitDx=0;exitDy=0;" edge="1" parent="LoEfclOxm1o4JzQXx3Db-5" source="LoEfclOxm1o4JzQXx3Db-81" target="LoEfclOxm1o4JzQXx3Db-90">
          <mxGeometry relative="1" as="geometry">
            <Array as="points">
              <mxPoint x="152" y="841" />
              <mxPoint x="152" y="974" />
              <mxPoint x="79" y="974" />
            </Array>
          </mxGeometry>
        </mxCell>
        <mxCell id="LoEfclOxm1o4JzQXx3Db-81" value="&lt;div&gt;Any problem with&amp;nbsp;&lt;/div&gt;&lt;div&gt;the report?&lt;/div&gt;" style="rhombus;whiteSpace=wrap;html=1;" vertex="1" parent="LoEfclOxm1o4JzQXx3Db-5">
          <mxGeometry x="15" y="801" width="127" height="80" as="geometry" />
        </mxCell>
        <mxCell id="LoEfclOxm1o4JzQXx3Db-84" value="No" style="text;html=1;align=center;verticalAlign=middle;whiteSpace=wrap;rounded=0;" vertex="1" parent="LoEfclOxm1o4JzQXx3Db-5">
          <mxGeometry x="100" y="851" width="60" height="30" as="geometry" />
        </mxCell>
        <mxCell id="LoEfclOxm1o4JzQXx3Db-88" value="Files a hard copy with the receipts in a filling cabinet" style="rounded=1;whiteSpace=wrap;html=1;arcSize=50;fontSize=11;" vertex="1" parent="LoEfclOxm1o4JzQXx3Db-5">
          <mxGeometry x="3" y="1064" width="152" height="46" as="geometry" />
        </mxCell>
        <mxCell id="LoEfclOxm1o4JzQXx3Db-91" value="" style="edgeStyle=orthogonalEdgeStyle;rounded=0;orthogonalLoop=1;jettySize=auto;html=1;" edge="1" parent="LoEfclOxm1o4JzQXx3Db-5" source="LoEfclOxm1o4JzQXx3Db-90" target="LoEfclOxm1o4JzQXx3Db-88">
          <mxGeometry relative="1" as="geometry" />
        </mxCell>
        <mxCell id="LoEfclOxm1o4JzQXx3Db-90" value="Enters the report into Fitter&#39;s accounting system" style="rounded=0;whiteSpace=wrap;html=1;fontSize=11;" vertex="1" parent="LoEfclOxm1o4JzQXx3Db-5">
          <mxGeometry x="19" y="989" width="120" height="47" as="geometry" />
        </mxCell>
        <mxCell id="LoEfclOxm1o4JzQXx3Db-96" value="Mails it back to Salesperson" style="rounded=0;whiteSpace=wrap;html=1;fontSize=11;" vertex="1" parent="LoEfclOxm1o4JzQXx3Db-5">
          <mxGeometry x="18.5" y="914" width="120" height="47" as="geometry" />
        </mxCell>
        <mxCell id="LoEfclOxm1o4JzQXx3Db-36" style="edgeStyle=orthogonalEdgeStyle;rounded=0;orthogonalLoop=1;jettySize=auto;html=1;exitX=0;exitY=0.5;exitDx=0;exitDy=0;entryX=0.5;entryY=1;entryDx=0;entryDy=0;" edge="1" parent="LoEfclOxm1o4JzQXx3Db-2" source="LoEfclOxm1o4JzQXx3Db-32" target="LoEfclOxm1o4JzQXx3Db-35">
          <mxGeometry relative="1" as="geometry" />
        </mxCell>
        <mxCell id="LoEfclOxm1o4JzQXx3Db-59" value="" style="edgeStyle=orthogonalEdgeStyle;rounded=0;orthogonalLoop=1;jettySize=auto;html=1;" edge="1" parent="LoEfclOxm1o4JzQXx3Db-2" source="LoEfclOxm1o4JzQXx3Db-46" target="LoEfclOxm1o4JzQXx3Db-49">
          <mxGeometry relative="1" as="geometry" />
        </mxCell>
        <mxCell id="LoEfclOxm1o4JzQXx3Db-67" value="" style="edgeStyle=orthogonalEdgeStyle;rounded=0;orthogonalLoop=1;jettySize=auto;html=1;" edge="1" parent="LoEfclOxm1o4JzQXx3Db-2" source="LoEfclOxm1o4JzQXx3Db-62" target="LoEfclOxm1o4JzQXx3Db-66">
          <mxGeometry relative="1" as="geometry" />
        </mxCell>
        <mxCell id="LoEfclOxm1o4JzQXx3Db-77" style="edgeStyle=orthogonalEdgeStyle;rounded=0;orthogonalLoop=1;jettySize=auto;html=1;entryX=0;entryY=0;entryDx=0;entryDy=0;exitX=0.5;exitY=0;exitDx=0;exitDy=0;" edge="1" parent="LoEfclOxm1o4JzQXx3Db-2" source="LoEfclOxm1o4JzQXx3Db-66" target="LoEfclOxm1o4JzQXx3Db-62">
          <mxGeometry relative="1" as="geometry" />
        </mxCell>
        <mxCell id="LoEfclOxm1o4JzQXx3Db-79" value="" style="edgeStyle=orthogonalEdgeStyle;rounded=0;orthogonalLoop=1;jettySize=auto;html=1;" edge="1" parent="LoEfclOxm1o4JzQXx3Db-2" source="LoEfclOxm1o4JzQXx3Db-63" target="LoEfclOxm1o4JzQXx3Db-78">
          <mxGeometry relative="1" as="geometry" />
        </mxCell>
        <mxCell id="LoEfclOxm1o4JzQXx3Db-100" style="edgeStyle=orthogonalEdgeStyle;rounded=0;orthogonalLoop=1;jettySize=auto;html=1;entryX=1;entryY=0.5;entryDx=0;entryDy=0;" edge="1" parent="LoEfclOxm1o4JzQXx3Db-2" source="LoEfclOxm1o4JzQXx3Db-96" target="LoEfclOxm1o4JzQXx3Db-85">
          <mxGeometry relative="1" as="geometry" />
        </mxCell>
        <mxCell id="LoEfclOxm1o4JzQXx3Db-101" style="edgeStyle=orthogonalEdgeStyle;rounded=0;orthogonalLoop=1;jettySize=auto;html=1;exitX=1;exitY=0.5;exitDx=0;exitDy=0;entryX=0.25;entryY=1;entryDx=0;entryDy=0;" edge="1" parent="LoEfclOxm1o4JzQXx3Db-2" source="LoEfclOxm1o4JzQXx3Db-93" target="LoEfclOxm1o4JzQXx3Db-78">
          <mxGeometry relative="1" as="geometry">
            <Array as="points">
              <mxPoint x="212" y="1066" />
              <mxPoint x="212" y="824" />
              <mxPoint x="522" y="824" />
            </Array>
          </mxGeometry>
        </mxCell>
        <mxCell id="LoEfclOxm1o4JzQXx3Db-99" value="Yes" style="text;html=1;align=center;verticalAlign=middle;whiteSpace=wrap;rounded=0;" vertex="1" parent="1">
          <mxGeometry x="663" y="1010" width="60" height="30" as="geometry" />
        </mxCell>
      </root>
    </mxGraphModel>
  </diagram>
</mxfile>
